<svg xmlns="http://www.w3.org/2000/svg" viewBox="0 0 32 32" width="640" height="640" shape-rendering="crispEdges">
  <rect x="12" y="6" width="1" height="1" fill="#865a4b"/>
  <rect x="13" y="6" width="1" height="1" fill="#865a4b"/>
  <rect x="14" y="6" width="1" height="1" fill="#865a4b"/>
  <rect x="15" y="6" width="1" height="1" fill="#865a4b"/>
  <rect x="16" y="6" width="1" height="1" fill="#865a4b"/>
  <rect x="17" y="6" width="1" height="1" fill="#865a4b"/>
  <rect x="18" y="6" width="1" height="1" fill="#865a4b"/>
  <rect x="11" y="7" width="1" height="1" fill="#865a4b"/>
  <rect x="19" y="7" width="1" height="1" fill="#865a4b"/>
  <rect x="10" y="8" width="1" height="1" fill="#865a4b"/>
  <rect x="20" y="8" width="1" height="1" fill="#865a4b"/>
  <rect x="9" y="9" width="1" height="1" fill="#865a4b"/>
  <rect x="21" y="9" width="1" height="1" fill="#865a4b"/>
  <rect x="9" y="10" width="1" height="1" fill="#865a4b"/>
  <rect x="21" y="10" width="1" height="1" fill="#865a4b"/>
  <rect x="9" y="11" width="1" height="1" fill="#865a4b"/>
  <rect x="10" y="11" width="1" height="1" fill="#865a4b"/>
  <rect x="11" y="11" width="1" height="1" fill="#865a4b"/>
  <rect x="12" y="11" width="1" height="1" fill="#865a4b"/>
  <rect x="13" y="11" width="1" height="1" fill="#865a4b"/>
  <rect x="14" y="11" width="1" height="1" fill="#865a4b"/>
  <rect x="15" y="11" width="1" height="1" fill="#865a4b"/>
  <rect x="16" y="11" width="1" height="1" fill="#865a4b"/>
  <rect x="17" y="11" width="1" height="1" fill="#865a4b"/>
  <rect x="18" y="11" width="1" height="1" fill="#865a4b"/>
  <rect x="19" y="11" width="1" height="1" fill="#865a4b"/>
  <rect x="20" y="11" width="1" height="1" fill="#865a4b"/>
  <rect x="21" y="11" width="1" height="1" fill="#865a4b"/>
  <rect x="8" y="12" width="1" height="1" fill="#865a4b"/>
  <rect x="22" y="12" width="1" height="1" fill="#865a4b"/>
  <rect x="7" y="13" width="1" height="1" fill="#865a4b"/>
  <rect x="23" y="13" width="1" height="1" fill="#865a4b"/>
  <rect x="7" y="14" width="1" height="1" fill="#865a4b"/>
  <rect x="22" y="14" width="1" height="1" fill="#865a4b"/>
  <rect x="8" y="15" width="1" height="1" fill="#865a4b"/>
  <rect x="21" y="15" width="1" height="1" fill="#865a4b"/>
  <rect x="12" y="7" width="1" height="1" fill="#eab96c"/>
  <rect x="13" y="7" width="1" height="1" fill="#eab96c"/>
  <rect x="14" y="7" width="1" height="1" fill="#eab96c"/>
  <rect x="15" y="7" width="1" height="1" fill="#eab96c"/>
  <rect x="16" y="7" width="1" height="1" fill="#eab96c"/>
  <rect x="11" y="8" width="1" height="1" fill="#eab96c"/>
  <rect x="12" y="8" width="1" height="1" fill="#eab96c"/>
  <rect x="10" y="9" width="1" height="1" fill="#eab96c"/>
  <rect x="9" y="12" width="1" height="1" fill="#eab96c"/>
  <rect x="10" y="12" width="1" height="1" fill="#eab96c"/>
  <rect x="12" y="12" width="1" height="1" fill="#eab96c"/>
  <rect x="13" y="12" width="1" height="1" fill="#eab96c"/>
  <rect x="14" y="12" width="1" height="1" fill="#eab96c"/>
  <rect x="15" y="12" width="1" height="1" fill="#eab96c"/>
  <rect x="16" y="12" width="1" height="1" fill="#eab96c"/>
  <rect x="17" y="12" width="1" height="1" fill="#eab96c"/>
  <rect x="18" y="12" width="1" height="1" fill="#eab96c"/>
  <rect x="19" y="12" width="1" height="1" fill="#eab96c"/>
  <rect x="20" y="12" width="1" height="1" fill="#eab96c"/>
  <rect x="21" y="12" width="1" height="1" fill="#eab96c"/>
  <rect x="8" y="13" width="1" height="1" fill="#eab96c"/>
  <rect x="21" y="13" width="1" height="1" fill="#eab96c"/>
  <rect x="22" y="13" width="1" height="1" fill="#eab96c"/>
  <rect x="8" y="14" width="1" height="1" fill="#eab96c"/>
  <rect x="9" y="14" width="1" height="1" fill="#eab96c"/>
  <rect x="20" y="14" width="1" height="1" fill="#eab96c"/>
  <rect x="21" y="14" width="1" height="1" fill="#eab96c"/>
  <rect x="17" y="7" width="1" height="1" fill="#cea73b"/>
  <rect x="18" y="7" width="1" height="1" fill="#cea73b"/>
  <rect x="13" y="8" width="1" height="1" fill="#cea73b"/>
  <rect x="14" y="8" width="1" height="1" fill="#cea73b"/>
  <rect x="15" y="8" width="1" height="1" fill="#cea73b"/>
  <rect x="16" y="8" width="1" height="1" fill="#cea73b"/>
  <rect x="17" y="8" width="1" height="1" fill="#cea73b"/>
  <rect x="18" y="8" width="1" height="1" fill="#cea73b"/>
  <rect x="19" y="8" width="1" height="1" fill="#cea73b"/>
  <rect x="11" y="9" width="1" height="1" fill="#cea73b"/>
  <rect x="19" y="9" width="1" height="1" fill="#cea73b"/>
  <rect x="20" y="9" width="1" height="1" fill="#cea73b"/>
  <rect x="12" y="9" width="1" height="1" fill="#cb1939"/>
  <rect x="13" y="9" width="1" height="1" fill="#cb1939"/>
  <rect x="14" y="9" width="1" height="1" fill="#cb1939"/>
  <rect x="15" y="9" width="1" height="1" fill="#cb1939"/>
  <rect x="16" y="9" width="1" height="1" fill="#cb1939"/>
  <rect x="17" y="9" width="1" height="1" fill="#cb1939"/>
  <rect x="18" y="9" width="1" height="1" fill="#cb1939"/>
  <rect x="10" y="10" width="1" height="1" fill="#cb1939"/>
  <rect x="11" y="10" width="1" height="1" fill="#cb1939"/>
  <rect x="12" y="10" width="1" height="1" fill="#cb1939"/>
  <rect x="13" y="10" width="1" height="1" fill="#cb1939"/>
  <rect x="14" y="10" width="1" height="1" fill="#cb1939"/>
  <rect x="15" y="10" width="1" height="1" fill="#cb1939"/>
  <rect x="16" y="10" width="1" height="1" fill="#cb1939"/>
  <rect x="17" y="10" width="1" height="1" fill="#cb1939"/>
  <rect x="18" y="10" width="1" height="1" fill="#cb1939"/>
  <rect x="19" y="10" width="1" height="1" fill="#cb1939"/>
  <rect x="20" y="10" width="1" height="1" fill="#cb1939"/>
  <rect x="14" y="18" width="1" height="1" fill="#cb1939"/>
  <rect x="16" y="18" width="1" height="1" fill="#cb1939"/>
  <rect x="12" y="19" width="1" height="1" fill="#cb1939"/>
  <rect x="13" y="19" width="1" height="1" fill="#cb1939"/>
  <rect x="14" y="19" width="1" height="1" fill="#cb1939"/>
  <rect x="16" y="19" width="1" height="1" fill="#cb1939"/>
  <rect x="17" y="19" width="1" height="1" fill="#cb1939"/>
  <rect x="18" y="19" width="1" height="1" fill="#cb1939"/>
  <rect x="11" y="20" width="1" height="1" fill="#cb1939"/>
  <rect x="12" y="20" width="1" height="1" fill="#cb1939"/>
  <rect x="13" y="20" width="1" height="1" fill="#cb1939"/>
  <rect x="14" y="20" width="1" height="1" fill="#cb1939"/>
  <rect x="16" y="20" width="1" height="1" fill="#cb1939"/>
  <rect x="17" y="20" width="1" height="1" fill="#cb1939"/>
  <rect x="18" y="20" width="1" height="1" fill="#cb1939"/>
  <rect x="19" y="20" width="1" height="1" fill="#cb1939"/>
  <rect x="13" y="21" width="1" height="1" fill="#cb1939"/>
  <rect x="17" y="21" width="1" height="1" fill="#cb1939"/>
  <rect x="11" y="12" width="1" height="1" fill="#323139"/>
  <rect x="9" y="13" width="1" height="1" fill="#323139"/>
  <rect x="10" y="13" width="1" height="1" fill="#323139"/>
  <rect x="11" y="13" width="1" height="1" fill="#323139"/>
  <rect x="12" y="13" width="1" height="1" fill="#323139"/>
  <rect x="13" y="13" width="1" height="1" fill="#323139"/>
  <rect x="14" y="13" width="1" height="1" fill="#323139"/>
  <rect x="15" y="13" width="1" height="1" fill="#323139"/>
  <rect x="16" y="13" width="1" height="1" fill="#323139"/>
  <rect x="17" y="13" width="1" height="1" fill="#323139"/>
  <rect x="18" y="13" width="1" height="1" fill="#323139"/>
  <rect x="19" y="13" width="1" height="1" fill="#323139"/>
  <rect x="20" y="13" width="1" height="1" fill="#323139"/>
  <rect x="10" y="14" width="1" height="1" fill="#323139"/>
  <rect x="11" y="14" width="1" height="1" fill="#323139"/>
  <rect x="12" y="14" width="1" height="1" fill="#323139"/>
  <rect x="15" y="14" width="1" height="1" fill="#323139"/>
  <rect x="18" y="14" width="1" height="1" fill="#323139"/>
  <rect x="19" y="14" width="1" height="1" fill="#323139"/>
  <rect x="9" y="15" width="1" height="1" fill="#323139"/>
  <rect x="10" y="15" width="1" height="1" fill="#323139"/>
  <rect x="11" y="15" width="1" height="1" fill="#323139"/>
  <rect x="13" y="15" width="1" height="1" fill="#323139"/>
  <rect x="17" y="15" width="1" height="1" fill="#323139"/>
  <rect x="19" y="15" width="1" height="1" fill="#323139"/>
  <rect x="20" y="15" width="1" height="1" fill="#323139"/>
  <rect x="10" y="16" width="1" height="1" fill="#323139"/>
  <rect x="11" y="16" width="1" height="1" fill="#323139"/>
  <rect x="13" y="16" width="1" height="1" fill="#323139"/>
  <rect x="17" y="16" width="1" height="1" fill="#323139"/>
  <rect x="19" y="16" width="1" height="1" fill="#323139"/>
  <rect x="20" y="16" width="1" height="1" fill="#323139"/>
  <rect x="11" y="17" width="1" height="1" fill="#323139"/>
  <rect x="19" y="17" width="1" height="1" fill="#323139"/>
  <rect x="12" y="18" width="1" height="1" fill="#323139"/>
  <rect x="13" y="18" width="1" height="1" fill="#323139"/>
  <rect x="17" y="18" width="1" height="1" fill="#323139"/>
  <rect x="18" y="18" width="1" height="1" fill="#323139"/>
  <rect x="11" y="19" width="1" height="1" fill="#323139"/>
  <rect x="19" y="19" width="1" height="1" fill="#323139"/>
  <rect x="10" y="20" width="1" height="1" fill="#323139"/>
  <rect x="20" y="20" width="1" height="1" fill="#323139"/>
  <rect x="10" y="21" width="1" height="1" fill="#323139"/>
  <rect x="20" y="21" width="1" height="1" fill="#323139"/>
  <rect x="11" y="22" width="1" height="1" fill="#323139"/>
  <rect x="12" y="22" width="1" height="1" fill="#323139"/>
  <rect x="18" y="22" width="1" height="1" fill="#323139"/>
  <rect x="19" y="22" width="1" height="1" fill="#323139"/>
  <rect x="12" y="23" width="1" height="1" fill="#323139"/>
  <rect x="15" y="23" width="1" height="1" fill="#323139"/>
  <rect x="18" y="23" width="1" height="1" fill="#323139"/>
  <rect x="12" y="24" width="1" height="1" fill="#323139"/>
  <rect x="15" y="24" width="1" height="1" fill="#323139"/>
  <rect x="18" y="24" width="1" height="1" fill="#323139"/>
  <rect x="13" y="25" width="1" height="1" fill="#323139"/>
  <rect x="14" y="25" width="1" height="1" fill="#323139"/>
  <rect x="16" y="25" width="1" height="1" fill="#323139"/>
  <rect x="17" y="25" width="1" height="1" fill="#323139"/>
  <rect x="13" y="14" width="1" height="1" fill="#f5b18a"/>
  <rect x="14" y="14" width="1" height="1" fill="#f5b18a"/>
  <rect x="16" y="14" width="1" height="1" fill="#f5b18a"/>
  <rect x="17" y="14" width="1" height="1" fill="#f5b18a"/>
  <rect x="12" y="15" width="1" height="1" fill="#f5b18a"/>
  <rect x="14" y="15" width="1" height="1" fill="#f5b18a"/>
  <rect x="15" y="15" width="1" height="1" fill="#f5b18a"/>
  <rect x="16" y="15" width="1" height="1" fill="#f5b18a"/>
  <rect x="18" y="15" width="1" height="1" fill="#f5b18a"/>
  <rect x="12" y="16" width="1" height="1" fill="#ffd9b2"/>
  <rect x="14" y="16" width="1" height="1" fill="#ffd9b2"/>
  <rect x="15" y="16" width="1" height="1" fill="#ffd9b2"/>
  <rect x="16" y="16" width="1" height="1" fill="#ffd9b2"/>
  <rect x="18" y="16" width="1" height="1" fill="#ffd9b2"/>
  <rect x="14" y="17" width="1" height="1" fill="#ffd9b2"/>
  <rect x="15" y="17" width="1" height="1" fill="#ffd9b2"/>
  <rect x="16" y="17" width="1" height="1" fill="#ffd9b2"/>
  <rect x="15" y="18" width="1" height="1" fill="#ffd9b2"/>
  <rect x="15" y="19" width="1" height="1" fill="#ffd9b2"/>
  <rect x="15" y="20" width="1" height="1" fill="#ffd9b2"/>
  <rect x="11" y="21" width="1" height="1" fill="#ffd9b2"/>
  <rect x="12" y="21" width="1" height="1" fill="#ffd9b2"/>
  <rect x="18" y="21" width="1" height="1" fill="#ffd9b2"/>
  <rect x="19" y="21" width="1" height="1" fill="#ffd9b2"/>
  <rect x="13" y="24" width="1" height="1" fill="#ffd9b2"/>
  <rect x="14" y="24" width="1" height="1" fill="#ffd9b2"/>
  <rect x="16" y="24" width="1" height="1" fill="#ffd9b2"/>
  <rect x="17" y="24" width="1" height="1" fill="#ffd9b2"/>
  <rect x="12" y="17" width="1" height="1" fill="#fe988c"/>
  <rect x="13" y="17" width="1" height="1" fill="#fe988c"/>
  <rect x="17" y="17" width="1" height="1" fill="#fe988c"/>
  <rect x="18" y="17" width="1" height="1" fill="#fe988c"/>
  <rect x="14" y="21" width="1" height="1" fill="#f2ff42"/>
  <rect x="15" y="21" width="1" height="1" fill="#f2ff42"/>
  <rect x="16" y="21" width="1" height="1" fill="#f2ff42"/>
  <rect x="17" y="22" width="1" height="1" fill="#f2ff42"/>
  <rect x="17" y="23" width="1" height="1" fill="#f2ff42"/>
  <rect x="13" y="22" width="1" height="1" fill="#5281db"/>
  <rect x="14" y="22" width="1" height="1" fill="#5281db"/>
  <rect x="15" y="22" width="1" height="1" fill="#5281db"/>
  <rect x="16" y="22" width="1" height="1" fill="#5281db"/>
  <rect x="13" y="23" width="1" height="1" fill="#5281db"/>
  <rect x="14" y="23" width="1" height="1" fill="#5281db"/>
  <rect x="16" y="23" width="1" height="1" fill="#5281db"/>
</svg>