<svg viewBox="0 0 340 220" xmlns="http://www.w3.org/2000/svg">
<path id="seg_1" d="M100 0H80V20H100V0Z" />
<path id="seg_1" d="M120 0H100V20H120V0Z" />
<path id="seg_1" d="M160 0H140V20H160V0Z" />
<path id="seg_1" d="M180 0H160V20H180V0Z" />
<path id="seg_1" d="M220 0H200V20H220V0Z" />
<path id="seg_1" d="M240 0H220V20H240V0Z" />
<path id="seg_1" d="M120 20H100V40H120V20Z" />
<path id="seg_1" d="M140 20H120V40H140V20Z" />
<path id="seg_1" d="M160 20H140V40H160V20Z" />
<path id="seg_1" d="M180 20H160V40H180V20Z" />
<path id="seg_1" d="M200 20H180V40H200V20Z" />
<path id="seg_1" d="M220 20H200V40H220V20Z" />
<path id="seg_1" d="M140 40H120V60H140V40Z" />
<path id="seg_1" d="M160 40H140V60H160V40Z" />
<path id="seg_1" d="M180 40H160V60H180V40Z" />
<path id="seg_1" d="M200 40H180V60H200V40Z" />
<path id="seg_2" d="M300 100H280V120H300V100Z" />
<path id="seg_2" d="M320 100H300V120H320V100Z" />
<path id="seg_3" d="M120 120H100V140H120V120Z" />
<path id="seg_3" d="M220 120H200V140H220V120Z" />
<path id="seg_3" d="M120 140H100V160H120V140Z" />
<path id="seg_3" d="M140 140H120V160H140V140Z" />
<path id="seg_3" d="M160 140H140V160H160V140Z" />
<path id="seg_3" d="M180 140H160V160H180V140Z" />
<path id="seg_3" d="M200 140H180V160H200V140Z" />
<path id="seg_3" d="M220 140H200V160H220V140Z" />
<path id="seg_3" d="M120 160H100V180H120V160Z" />
<path id="seg_3" d="M140 160H120V180H140V160Z" />
<path id="seg_3" d="M160 160H140V180H160V160Z" />
<path id="seg_3" d="M180 160H160V180H180V160Z" />
<path id="seg_3" d="M200 160H180V180H200V160Z" />
<path id="seg_3" d="M220 160H200V180H220V160Z" />
<path id="seg_4" d="M120 60H100V80H120V60Z" />
<path id="seg_4" d="M140 60H120V80H140V60Z" />
<path id="seg_4" d="M160 60H140V80H160V60Z" />
<path id="seg_4" d="M180 60H160V80H180V60Z" />
<path id="seg_4" d="M200 60H180V80H200V60Z" />
<path id="seg_4" d="M220 60H200V80H220V60Z" />
<path id="seg_4" d="M120 80H100V100H120V80Z" />
<path id="seg_4" d="M160 80H140V100H160V80Z" />
<path id="seg_4" d="M180 80H160V100H180V80Z" />
<path id="seg_4" d="M220 80H200V100H220V80Z" />
<path id="seg_4" d="M120 100H100V120H120V100Z" />
<path id="seg_4" d="M160 100H140V120H160V100Z" />
<path id="seg_4" d="M180 100H160V120H180V100Z" />
<path id="seg_4" d="M220 100H200V120H220V100Z" />
<path id="seg_5" d="M100 120H80V140H100V120Z" />
<path id="seg_5" d="M100 140H80V160H100V140Z" />
<path id="seg_5" d="M100 160H80V180H100V160Z" />
<path id="seg_6" d="M140 120H120V140H140V120Z" />
<path id="seg_7" d="M200 120H180V140H200V120Z" />
<path id="seg_8" d="M240 120H220V140H240V120Z" />
<path id="seg_8" d="M240 140H220V160H240V140Z" />
<path id="seg_8" d="M240 160H220V180H240V160Z" />
<path id="seg_9" d="M120 180H100V200H120V180Z" />
<path id="seg_9" d="M140 180H120V200H140V180Z" />
<path id="seg_9" d="M160 180H140V200H160V180Z" />
<path id="seg_9" d="M180 180H160V200H180V180Z" />
<path id="seg_9" d="M200 180H180V200H200V180Z" />
<path id="seg_9" d="M220 180H200V200H220V180Z" />
<path id="seg_10" d="M20 80H0V100H20V80Z" />
<path id="seg_10" d="M40 80H20V100H40V80Z" />
<path id="seg_10" d="M20 100H0V120H20V100Z" />
<path id="seg_10" d="M40 100H20V120H40V100Z" />
<path id="seg_11" d="M60 120H40V140H60V120Z" />
<path id="seg_12" d="M80 140H60V160H80V140Z" />
<path id="seg_13" d="M160 120H140V140H160V120Z" />
<path id="seg_13" d="M180 120H160V140H180V120Z" />
<path id="seg_14" d="M140 200H120V220H140V200Z" />
<path id="seg_15" d="M200 200H180V220H200V200Z" />
<path id="seg_16" d="M280 120H260V140H280V120Z" />
<path id="seg_16" d="M300 120H280V140H300V120Z" />
<path id="seg_16" d="M320 120H300V140H320V120Z" />
<path id="seg_16" d="M340 120H320V140H340V120Z" />
<path id="seg_17" d="M260 140H240V160H260V140Z" />
</svg>